<svg xmlns="http://www.w3.org/2000/svg" width="450" viewBox="0 0 450 150" height="150" version="1.0"><defs><clipPath id="a"><path d="M 8.429688 46.324219 L 44.429688 46.324219 L 44.429688 106.324219 L 8.429688 106.324219 Z M 8.429688 46.324219"/></clipPath><clipPath id="b"><path d="M 307.796875 43.675781 L 343.796875 43.675781 L 343.796875 103.675781 L 307.796875 103.675781 Z M 307.796875 43.675781"/></clipPath><clipPath id="c"><path d="M 348.382812 33.015625 L 434.632812 33.015625 L 434.632812 119.265625 L 348.382812 119.265625 Z M 348.382812 33.015625"/></clipPath><clipPath id="d"><path d="M 367 57 L 434.632812 57 L 434.632812 119.265625 L 367 119.265625 Z M 367 57"/></clipPath><clipPath id="e"><path d="M 359.082031 94 L 424.332031 94 L 424.332031 100 L 359.082031 100 Z M 359.082031 94"/></clipPath><clipPath id="f"><path d="M 382 99 L 401 99 L 401 109.925781 L 382 109.925781 Z M 382 99"/></clipPath><clipPath id="g"><path d="M 359.082031 90 L 424.332031 90 L 424.332031 98 L 359.082031 98 Z M 359.082031 90"/></clipPath><clipPath id="h"><path d="M 359.082031 50 L 424.332031 50 L 424.332031 91 L 359.082031 91 Z M 359.082031 50"/></clipPath><clipPath id="i"><path d="M 380 108 L 403 108 L 403 109.925781 L 380 109.925781 Z M 380 108"/></clipPath><clipPath id="j"><path d="M 417.152344 115.992188 L 445.652344 115.992188 L 445.652344 145.992188 L 417.152344 145.992188 Z M 417.152344 115.992188"/></clipPath><clipPath id="k"><path d="M 8.429688 121.40625 L 32.636719 121.40625 L 32.636719 145.613281 L 8.429688 145.613281 Z M 8.429688 121.40625"/></clipPath><clipPath id="l"><path d="M 35.199219 121.40625 L 56.859375 121.40625 L 56.859375 146.253906 L 35.199219 146.253906 Z M 35.199219 121.40625"/></clipPath><clipPath id="m"><path d="M 60.011719 121.40625 L 82.308594 121.40625 L 82.308594 146.253906 L 60.011719 146.253906 Z M 60.011719 121.40625"/></clipPath><clipPath id="n"><path d="M 84.03125 122 L 115.246094 122 L 115.246094 145.613281 L 84.03125 145.613281 Z M 84.03125 122"/></clipPath><clipPath id="o"><path d="M 118.375 121.40625 L 136 121.40625 L 136 140 L 118.375 140 Z M 118.375 121.40625"/></clipPath><clipPath id="p"><path d="M 125 127 L 143 127 L 143 145.613281 L 125 145.613281 Z M 125 127"/></clipPath></defs><path fill="#FFF" d="M-45 -15H495V165H-45z"/><path fill="#FFF" d="M-45 -15H495V165H-45z"/><path fill="#565D72" d="M-45 -15H495V165H-45z"/><g clip-path="url(#a)"><path fill="#ADB6E4" d="M 38.144531 106.25 L 8.433594 76.421875 L 38.351562 46.386719 L 44.4375 52.492188 L 20.601562 76.421875 L 44.230469 100.144531 L 38.144531 106.25"/></g><g clip-path="url(#b)"><path fill="#ADB6E4" d="M 314.082031 43.75 L 343.792969 73.578125 L 313.875 103.613281 L 307.792969 97.507812 L 331.625 73.578125 L 308 49.855469 L 314.082031 43.75"/></g><g fill="#FFF"><g><g><path d="M 8.242188 0 L 9.671875 0 L 6.238281 -12.066406 L 4.113281 -12.066406 L 0.644531 0 L 2.089844 0 L 3.09375 -3.28125 L 7.242188 -3.28125 Z M 6.984375 -4.386719 L 3.347656 -4.402344 L 4.960938 -10.859375 L 5.386719 -10.859375 Z M 6.984375 -4.386719" transform="translate(43.155 74.366)"/></g></g></g><g fill="#FFF"><g><g><path d="M 3.160156 -8.769531 L 1.75 -8.769531 L 1.75 0 L 3.210938 0 L 3.210938 -5.8125 C 3.210938 -6.933594 4.011719 -7.714844 5.234375 -7.714844 C 6.457031 -7.714844 7.222656 -6.832031 7.222656 -5.300781 L 7.222656 0 L 8.667969 0 L 8.667969 -5.539062 C 8.667969 -7.546875 7.664062 -8.871094 5.847656 -8.871094 C 4.640625 -8.871094 3.550781 -8.242188 3.261719 -7.292969 L 3.160156 -7.292969 Z M 3.160156 -8.769531" transform="translate(53.487 74.366)"/></g></g></g><g fill="#FFF"><g><g><path d="M 4.503906 0.203125 C 5.726562 0.203125 6.78125 -0.457031 7.136719 -1.5625 L 7.207031 -1.5625 L 7.207031 0 L 8.582031 0 L 8.582031 -12.390625 L 7.136719 -12.390625 L 7.136719 -7.1875 L 7.085938 -7.1875 C 6.679688 -8.242188 5.710938 -8.871094 4.570312 -8.871094 C 2.414062 -8.871094 1.054688 -7.054688 1.054688 -4.316406 C 1.054688 -1.699219 2.378906 0.203125 4.503906 0.203125 Z M 4.980469 -0.832031 C 3.519531 -0.832031 2.566406 -2.210938 2.566406 -4.332031 C 2.566406 -6.492188 3.519531 -7.835938 5.015625 -7.835938 C 6.476562 -7.835938 7.15625 -6.644531 7.15625 -4.386719 C 7.15625 -2.210938 6.765625 -0.832031 4.980469 -0.832031 Z M 4.980469 -0.832031" transform="translate(63.819 74.366)"/></g></g></g><g fill="#FFF"><g><g><path d="M 10.164062 -6.59375 C 10.164062 -7.921875 9.109375 -8.820312 7.921875 -8.804688 C 7.527344 -8.769531 5.914062 -8.582031 5.386719 -6.917969 L 5.300781 -6.917969 L 5.300781 -8.769531 L 1.359375 -8.769531 L 1.359375 -7.699219 L 3.890625 -7.699219 L 3.890625 -1.070312 L 1.359375 -1.070312 L 1.359375 0 L 8.667969 0 L 8.667969 -1.070312 L 5.355469 -1.070312 L 5.355469 -5.457031 C 5.355469 -6.714844 6.152344 -7.597656 7.34375 -7.597656 C 8.105469 -7.597656 8.734375 -6.917969 8.734375 -6.152344 L 8.734375 -5.066406 L 10.164062 -5.066406 Z M 10.164062 -6.59375" transform="translate(74.15 74.366)"/></g></g></g><g fill="#FFF"><g><g><path d="M 7.445312 -12.609375 L 6.015625 -12.730469 L 4.367188 -10.011719 L 5.457031 -9.910156 Z M 5.386719 0.222656 C 6.882812 0.222656 8.191406 -0.613281 8.835938 -1.902344 L 8.039062 -2.429688 C 7.597656 -1.410156 6.558594 -0.816406 5.386719 -0.816406 C 3.671875 -0.816406 2.703125 -2.125 2.753906 -4.097656 L 8.992188 -4.097656 C 9.160156 -7.085938 7.632812 -8.871094 5.183594 -8.871094 C 2.753906 -8.871094 1.292969 -7.035156 1.292969 -4.300781 C 1.292969 -1.480469 2.921875 0.222656 5.386719 0.222656 Z M 2.738281 -4.878906 C 2.738281 -6.796875 3.707031 -7.902344 5.167969 -7.902344 C 6.664062 -7.902344 7.527344 -6.695312 7.527344 -4.878906 Z M 2.738281 -4.878906" transform="translate(85.111 74.366)"/></g></g></g><g fill="#FFF"><g><g><path d="M 5.183594 0.253906 C 7.496094 0.253906 9.042969 -0.851562 9.042969 -2.515625 C 9.042969 -3.671875 7.988281 -4.605469 6.40625 -4.84375 L 4.910156 -5.082031 C 3.808594 -5.234375 3.09375 -5.828125 3.09375 -6.578125 C 3.109375 -7.476562 3.925781 -8.089844 5.167969 -8.089844 C 6.269531 -8.089844 7.460938 -7.5625 8.15625 -6.78125 L 8.855469 -7.613281 C 7.972656 -8.480469 6.527344 -9.058594 5.25 -9.058594 C 3.144531 -9.058594 1.765625 -8.039062 1.765625 -6.476562 C 1.765625 -5.21875 2.855469 -4.230469 4.503906 -3.992188 L 5.8125 -3.789062 C 7.019531 -3.601562 7.765625 -2.992188 7.683594 -2.277344 C 7.613281 -1.324219 6.679688 -0.714844 5.335938 -0.714844 C 4.078125 -0.714844 2.738281 -1.324219 1.988281 -2.242188 L 1.257812 -1.480469 C 2.125 -0.441406 3.707031 0.253906 5.183594 0.253906 Z M 5.183594 0.253906" transform="translate(95.443 74.366)"/></g></g></g><g fill="#FFF"><g><g><path d="M 1.714844 -12.066406 L 1.714844 0 L 3.179688 0 L 3.179688 -5.386719 L 8.652344 -5.386719 L 8.652344 -6.59375 L 3.179688 -6.59375 L 3.179688 -10.859375 L 9.058594 -10.859375 L 9.058594 -12.066406 Z M 1.714844 -12.066406" transform="translate(114.271 74.366)"/></g></g></g><g fill="#FFF"><g><g><path d="M 5.183594 0.136719 C 5.746094 0.136719 6.203125 -0.324219 6.203125 -0.882812 C 6.203125 -1.445312 5.746094 -1.902344 5.183594 -1.902344 C 4.621094 -1.902344 4.164062 -1.445312 4.164062 -0.882812 C 4.164062 -0.324219 4.621094 0.136719 5.183594 0.136719 Z M 5.183594 0.136719" transform="translate(124.603 74.366)"/></g></g></g><g fill="#FFF"><g><g><path d="M 8.242188 0 L 9.671875 0 L 6.238281 -12.066406 L 4.113281 -12.066406 L 0.644531 0 L 2.089844 0 L 3.09375 -3.28125 L 7.242188 -3.28125 Z M 6.984375 -4.386719 L 3.347656 -4.402344 L 4.960938 -10.859375 L 5.386719 -10.859375 Z M 6.984375 -4.386719" transform="translate(143.431 74.366)"/></g></g></g><g fill="#FFF"><g><g><path d="M 10.164062 -6.59375 C 10.164062 -7.921875 9.109375 -8.820312 7.921875 -8.804688 C 7.527344 -8.769531 5.914062 -8.582031 5.386719 -6.917969 L 5.300781 -6.917969 L 5.300781 -8.769531 L 1.359375 -8.769531 L 1.359375 -7.699219 L 3.890625 -7.699219 L 3.890625 -1.070312 L 1.359375 -1.070312 L 1.359375 0 L 8.667969 0 L 8.667969 -1.070312 L 5.355469 -1.070312 L 5.355469 -5.457031 C 5.355469 -6.714844 6.152344 -7.597656 7.34375 -7.597656 C 8.105469 -7.597656 8.734375 -6.917969 8.734375 -6.152344 L 8.734375 -5.066406 L 10.164062 -5.066406 Z M 10.164062 -6.59375" transform="translate(153.763 74.366)"/></g></g></g><g fill="#FFF"><g><g><path d="M 10.164062 -6.59375 C 10.164062 -7.921875 9.109375 -8.820312 7.921875 -8.804688 C 7.527344 -8.769531 5.914062 -8.582031 5.386719 -6.917969 L 5.300781 -6.917969 L 5.300781 -8.769531 L 1.359375 -8.769531 L 1.359375 -7.699219 L 3.890625 -7.699219 L 3.890625 -1.070312 L 1.359375 -1.070312 L 1.359375 0 L 8.667969 0 L 8.667969 -1.070312 L 5.355469 -1.070312 L 5.355469 -5.457031 C 5.355469 -6.714844 6.152344 -7.597656 7.34375 -7.597656 C 8.105469 -7.597656 8.734375 -6.917969 8.734375 -6.152344 L 8.734375 -5.066406 L 10.164062 -5.066406 Z M 10.164062 -6.59375" transform="translate(164.723 74.366)"/></g></g></g><g fill="#FFF"><g><g><path d="M 5.167969 0.203125 C 7.527344 0.203125 9.09375 -1.613281 9.09375 -4.332031 C 9.09375 -7.054688 7.527344 -8.871094 5.167969 -8.871094 C 2.804688 -8.871094 1.222656 -7.054688 1.222656 -4.332031 C 1.222656 -1.613281 2.804688 0.203125 5.167969 0.203125 Z M 5.167969 -0.851562 C 3.707031 -0.851562 2.738281 -2.261719 2.738281 -4.386719 C 2.738281 -6.441406 3.707031 -7.816406 5.167969 -7.816406 C 6.628906 -7.816406 7.597656 -6.425781 7.597656 -4.351562 C 7.597656 -2.242188 6.628906 -0.851562 5.167969 -0.851562 Z M 5.167969 -0.851562" transform="translate(175.684 74.366)"/></g></g></g><g fill="#FFF"><g><g><path d="M 2.550781 -8.769531 L 1.070312 -8.769531 L 4.351562 -0.015625 L 4.777344 -0.015625 C 4.265625 0.953125 3.722656 2.617188 1.273438 2.328125 L 1.273438 3.363281 C 3.757812 3.621094 5.082031 2.464844 6 0.136719 L 9.296875 -8.769531 L 7.75 -8.769531 L 5.320312 -1.15625 L 5.082031 -1.15625 Z M 2.550781 -8.769531" transform="translate(186.016 74.366)"/></g></g></g><g fill="#FFF"><g><g><path d="M 9.363281 -0.917969 L 8.667969 -0.917969 C 8.378906 -0.902344 8.226562 -1.070312 8.226562 -1.308594 L 8.226562 -5.796875 C 8.226562 -7.683594 6.867188 -8.871094 4.828125 -8.871094 C 2.738281 -8.871094 1.410156 -7.527344 1.375 -6.152344 L 2.820312 -6.152344 C 2.839844 -6.953125 3.621094 -7.902344 4.792969 -7.902344 C 5.984375 -7.902344 6.746094 -7.121094 6.746094 -5.949219 L 6.746094 -4.980469 L 4.417969 -4.777344 C 2.394531 -4.605469 1.105469 -3.585938 1.105469 -2.226562 C 1.105469 -0.730469 2.242188 0.203125 3.941406 0.203125 C 5.269531 0.203125 6.355469 -0.457031 6.765625 -1.445312 L 6.832031 -1.445312 C 6.832031 -0.5625 7.136719 0 8.023438 0 L 9.363281 0 Z M 6.78125 -2.703125 C 6.78125 -1.511719 5.878906 -0.765625 4.519531 -0.765625 C 3.363281 -0.765625 2.632812 -1.410156 2.632812 -2.363281 C 2.632812 -3.296875 3.570312 -3.976562 4.996094 -4.113281 L 6.714844 -4.25 L 6.78125 -4.199219 Z M 6.78125 -2.703125" transform="translate(196.348 74.366)"/></g></g></g><g fill="#FFF"><g><g><path d="M 6.1875 0 L 9.179688 -8.769531 L 7.699219 -8.769531 L 5.4375 -1.207031 L 5.082031 -1.207031 L 2.617188 -8.769531 L 1.140625 -8.769531 L 4.25 0 Z M 6.1875 0" transform="translate(206.832 74.366)"/></g></g></g><g fill="#FFF"><g><g><path d="M 5.386719 0.222656 C 6.882812 0.222656 8.191406 -0.613281 8.835938 -1.902344 L 8.039062 -2.429688 C 7.597656 -1.410156 6.558594 -0.816406 5.386719 -0.816406 C 3.671875 -0.816406 2.703125 -2.125 2.753906 -4.097656 L 8.992188 -4.097656 C 9.160156 -7.085938 7.632812 -8.871094 5.183594 -8.871094 C 2.753906 -8.871094 1.292969 -7.035156 1.292969 -4.300781 C 1.292969 -1.480469 2.921875 0.222656 5.386719 0.222656 Z M 2.738281 -4.878906 C 2.738281 -6.796875 3.707031 -7.902344 5.167969 -7.902344 C 6.664062 -7.902344 7.527344 -6.695312 7.527344 -4.878906 Z M 2.738281 -4.878906" transform="translate(217.164 74.366)"/></g></g></g><g fill="#FFF"><g><g><path d="M 2.957031 -12.066406 L 1.359375 -12.066406 L 1.359375 0 L 2.632812 0 L 2.632812 -10.042969 L 2.738281 -10.042969 L 7.425781 0 L 8.957031 0 L 8.957031 -12.066406 L 7.683594 -12.066406 L 7.664062 -2.039062 L 7.582031 -2.039062 Z M 2.957031 -12.066406" transform="translate(235.992 74.366)"/></g></g></g><g fill="#FFF"><g><g><path d="M 9.363281 -0.917969 L 8.667969 -0.917969 C 8.378906 -0.902344 8.226562 -1.070312 8.226562 -1.308594 L 8.226562 -5.796875 C 8.226562 -7.683594 6.867188 -8.871094 4.828125 -8.871094 C 2.738281 -8.871094 1.410156 -7.527344 1.375 -6.152344 L 2.820312 -6.152344 C 2.839844 -6.953125 3.621094 -7.902344 4.792969 -7.902344 C 5.984375 -7.902344 6.746094 -7.121094 6.746094 -5.949219 L 6.746094 -4.980469 L 4.417969 -4.777344 C 2.394531 -4.605469 1.105469 -3.585938 1.105469 -2.226562 C 1.105469 -0.730469 2.242188 0.203125 3.941406 0.203125 C 5.269531 0.203125 6.355469 -0.457031 6.765625 -1.445312 L 6.832031 -1.445312 C 6.832031 -0.5625 7.136719 0 8.023438 0 L 9.363281 0 Z M 6.78125 -2.703125 C 6.78125 -1.511719 5.878906 -0.765625 4.519531 -0.765625 C 3.363281 -0.765625 2.632812 -1.410156 2.632812 -2.363281 C 2.632812 -3.296875 3.570312 -3.976562 4.996094 -4.113281 L 6.714844 -4.25 L 6.78125 -4.199219 Z M 6.78125 -2.703125" transform="translate(246.324 74.366)"/></g></g></g><g fill="#FFF"><g><g><path d="M 10.164062 -6.59375 C 10.164062 -7.921875 9.109375 -8.820312 7.921875 -8.804688 C 7.527344 -8.769531 5.914062 -8.582031 5.386719 -6.917969 L 5.300781 -6.917969 L 5.300781 -8.769531 L 1.359375 -8.769531 L 1.359375 -7.699219 L 3.890625 -7.699219 L 3.890625 -1.070312 L 1.359375 -1.070312 L 1.359375 0 L 8.667969 0 L 8.667969 -1.070312 L 5.355469 -1.070312 L 5.355469 -5.457031 C 5.355469 -6.714844 6.152344 -7.597656 7.34375 -7.597656 C 8.105469 -7.597656 8.734375 -6.917969 8.734375 -6.152344 L 8.734375 -5.066406 L 10.164062 -5.066406 Z M 10.164062 -6.59375" transform="translate(256.809 74.366)"/></g></g></g><g fill="#FFF"><g><g><path d="M 9.363281 -0.917969 L 8.667969 -0.917969 C 8.378906 -0.902344 8.226562 -1.070312 8.226562 -1.308594 L 8.226562 -5.796875 C 8.226562 -7.683594 6.867188 -8.871094 4.828125 -8.871094 C 2.738281 -8.871094 1.410156 -7.527344 1.375 -6.152344 L 2.820312 -6.152344 C 2.839844 -6.953125 3.621094 -7.902344 4.792969 -7.902344 C 5.984375 -7.902344 6.746094 -7.121094 6.746094 -5.949219 L 6.746094 -4.980469 L 4.417969 -4.777344 C 2.394531 -4.605469 1.105469 -3.585938 1.105469 -2.226562 C 1.105469 -0.730469 2.242188 0.203125 3.941406 0.203125 C 5.269531 0.203125 6.355469 -0.457031 6.765625 -1.445312 L 6.832031 -1.445312 C 6.832031 -0.5625 7.136719 0 8.023438 0 L 9.363281 0 Z M 6.78125 -2.703125 C 6.78125 -1.511719 5.878906 -0.765625 4.519531 -0.765625 C 3.363281 -0.765625 2.632812 -1.410156 2.632812 -2.363281 C 2.632812 -3.296875 3.570312 -3.976562 4.996094 -4.113281 L 6.714844 -4.25 L 6.78125 -4.199219 Z M 6.78125 -2.703125" transform="translate(267.77 74.366)"/></g></g></g><g fill="#FFF"><g><g><path d="M 3.160156 -8.769531 L 1.75 -8.769531 L 1.75 0 L 3.210938 0 L 3.210938 -5.8125 C 3.210938 -6.933594 4.011719 -7.714844 5.234375 -7.714844 C 6.457031 -7.714844 7.222656 -6.832031 7.222656 -5.300781 L 7.222656 0 L 8.667969 0 L 8.667969 -5.539062 C 8.667969 -7.546875 7.664062 -8.871094 5.847656 -8.871094 C 4.640625 -8.871094 3.550781 -8.242188 3.261719 -7.292969 L 3.160156 -7.292969 Z M 3.160156 -8.769531" transform="translate(278.254 74.366)"/></g></g></g><g fill="#FFF"><g><g><path d="M 7.425781 -10.707031 C 7.953125 -10.707031 8.394531 -11.148438 8.378906 -11.691406 C 8.378906 -12.21875 7.953125 -12.644531 7.425781 -12.644531 C 6.882812 -12.644531 6.441406 -12.21875 6.441406 -11.691406 C 6.441406 -11.148438 6.882812 -10.707031 7.425781 -10.707031 Z M 6.679688 -7.699219 L 6.679688 0.304688 C 6.679688 1.34375 5.828125 2.160156 4.808594 2.160156 C 3.773438 2.160156 2.941406 1.34375 2.941406 0.304688 L 2.941406 -0.664062 L 1.683594 -0.664062 L 1.683594 0.0664062 C 1.683594 1.851562 2.957031 3.28125 4.910156 3.28125 C 6.679688 3.28125 8.125 1.851562 8.125 0.0664062 L 8.125 -8.769531 L 2.039062 -8.769531 L 2.039062 -7.699219 Z M 6.679688 -7.699219" transform="translate(288.586 74.366)"/></g></g></g><g fill="#FFF"><g><g><path d="M 5.167969 0.203125 C 7.527344 0.203125 9.09375 -1.613281 9.09375 -4.332031 C 9.09375 -7.054688 7.527344 -8.871094 5.167969 -8.871094 C 2.804688 -8.871094 1.222656 -7.054688 1.222656 -4.332031 C 1.222656 -1.613281 2.804688 0.203125 5.167969 0.203125 Z M 5.167969 -0.851562 C 3.707031 -0.851562 2.738281 -2.261719 2.738281 -4.386719 C 2.738281 -6.441406 3.707031 -7.816406 5.167969 -7.816406 C 6.628906 -7.816406 7.597656 -6.425781 7.597656 -4.351562 C 7.597656 -2.242188 6.628906 -0.851562 5.167969 -0.851562 Z M 5.167969 -0.851562" transform="translate(299.342 74.366)"/></g></g></g><g fill="#FF5757"><g><g><path d="M 1.210938 -8.515625 L 1.210938 0 L 2.242188 0 L 2.242188 -3.800781 L 6.105469 -3.800781 L 6.105469 -4.652344 L 2.242188 -4.652344 L 2.242188 -7.664062 L 6.390625 -7.664062 L 6.390625 -8.515625 Z M 1.210938 -8.515625" transform="translate(90.112 92.03)"/></g></g></g><g fill="#FF5757"><g><g><path d="M 6.414062 -0.660156 C 6.199219 -0.660156 6.03125 -0.828125 6.03125 -1.042969 L 6.03125 -6.1875 L 5.011719 -6.1875 L 5.011719 -1.980469 C 5.011719 -1.117188 4.367188 -0.636719 3.5625 -0.636719 C 2.675781 -0.636719 2.160156 -1.164062 2.160156 -2.289062 L 2.160156 -6.1875 L 1.140625 -6.1875 L 1.140625 -2.121094 C 1.140625 -0.683594 1.859375 0.144531 3.140625 0.144531 C 4.042969 0.144531 4.738281 -0.289062 4.988281 -0.960938 L 5.050781 -0.960938 C 5.050781 -0.382812 5.410156 0 5.914062 0 L 6.777344 0 L 6.777344 -0.660156 Z M 6.414062 -0.660156" transform="translate(97.4 92.03)"/></g></g></g><g fill="#FF5757"><g><g><path d="M 5.15625 -1.703125 C 5.15625 -1.1875 4.75 -0.753906 4.234375 -0.753906 C 3.71875 -0.753906 3.285156 -1.175781 3.285156 -1.691406 L 3.285156 -8.742188 L 0.457031 -8.742188 L 0.457031 -7.988281 L 2.265625 -7.988281 L 2.253906 -1.835938 C 2.253906 -0.828125 3.082031 0 4.089844 0 C 5.359375 0 5.925781 -0.828125 5.925781 -1.835938 L 5.925781 -2.253906 L 5.15625 -2.253906 Z M 5.15625 -1.703125" transform="translate(105.433 92.03)"/></g></g></g><g fill="#FF5757"><g><g><path d="M 5.15625 -1.703125 C 5.15625 -1.1875 4.75 -0.753906 4.234375 -0.753906 C 3.71875 -0.753906 3.285156 -1.175781 3.285156 -1.691406 L 3.285156 -8.742188 L 0.457031 -8.742188 L 0.457031 -7.988281 L 2.265625 -7.988281 L 2.253906 -1.835938 C 2.253906 -0.828125 3.082031 0 4.089844 0 C 5.359375 0 5.925781 -0.828125 5.925781 -1.835938 L 5.925781 -2.253906 L 5.15625 -2.253906 Z M 5.15625 -1.703125" transform="translate(112.242 92.03)"/></g></g></g><g fill="#FF5757"><g><g><path d="M 5.421875 -3.980469 L 1.871094 -3.980469 L 1.871094 -3.09375 L 5.421875 -3.09375 Z M 5.421875 -3.980469" transform="translate(119.051 92.03)"/></g></g></g><g fill="#FF5757"><g><g><path d="M 3.644531 0.167969 C 5.371094 0.167969 6.609375 -0.816406 6.609375 -2.328125 C 6.609375 -3.527344 5.78125 -4.367188 4.425781 -4.640625 L 3.382812 -4.867188 C 2.410156 -5.050781 1.835938 -5.539062 1.835938 -6.296875 C 1.835938 -7.136719 2.519531 -7.675781 3.609375 -7.675781 C 4.460938 -7.675781 5.289062 -7.28125 5.769531 -6.597656 L 6.511719 -7.242188 C 5.914062 -8.035156 4.820312 -8.585938 3.632812 -8.585938 C 1.964844 -8.585938 0.816406 -7.640625 0.816406 -6.175781 C 0.816406 -5.050781 1.632812 -4.269531 2.984375 -3.980469 L 4.003906 -3.765625 C 5 -3.574219 5.578125 -3.011719 5.578125 -2.207031 C 5.578125 -1.28125 4.808594 -0.695312 3.71875 -0.695312 C 2.769531 -0.695312 1.882812 -1.164062 1.390625 -1.941406 L 0.550781 -1.464844 C 1.1875 -0.433594 2.339844 0.167969 3.644531 0.167969 Z M 3.644531 0.167969" transform="translate(126.34 92.03)"/></g></g></g><g fill="#FF5757"><g><g><path d="M 6.714844 -6.1875 L 3.597656 -6.1875 L 3.597656 -8.324219 L 2.578125 -8.324219 L 2.578125 -6.1875 L 0.515625 -6.1875 L 0.515625 -5.445312 L 2.578125 -5.445312 L 2.578125 -2.074219 C 2.578125 -0.933594 3.5 0 4.652344 0 C 6.066406 0 6.714844 -0.996094 6.714844 -2.074219 L 6.714844 -2.578125 L 5.851562 -2.578125 L 5.851562 -1.964844 C 5.851562 -1.332031 5.398438 -0.804688 4.714844 -0.804688 C 4.089844 -0.804688 3.597656 -1.332031 3.597656 -1.964844 L 3.597656 -5.445312 L 6.714844 -5.445312 Z M 6.714844 -6.1875" transform="translate(133.629 92.03)"/></g></g></g><g fill="#FF5757"><g><g><path d="M 6.609375 -0.648438 L 6.117188 -0.648438 C 5.914062 -0.636719 5.804688 -0.753906 5.804688 -0.921875 L 5.804688 -4.089844 C 5.804688 -5.421875 4.84375 -6.261719 3.40625 -6.261719 C 1.929688 -6.261719 0.996094 -5.3125 0.972656 -4.339844 L 1.992188 -4.339844 C 2.003906 -4.90625 2.554688 -5.578125 3.382812 -5.578125 C 4.222656 -5.578125 4.761719 -5.023438 4.761719 -4.199219 L 4.761719 -3.515625 L 3.117188 -3.371094 C 1.691406 -3.25 0.78125 -2.53125 0.78125 -1.570312 C 0.78125 -0.515625 1.582031 0.144531 2.78125 0.144531 C 3.71875 0.144531 4.484375 -0.324219 4.773438 -1.019531 L 4.820312 -1.019531 C 4.820312 -0.394531 5.035156 0 5.660156 0 L 6.609375 0 Z M 4.785156 -1.90625 C 4.785156 -1.066406 4.148438 -0.539062 3.191406 -0.539062 C 2.375 -0.539062 1.859375 -0.996094 1.859375 -1.667969 C 1.859375 -2.328125 2.519531 -2.804688 3.527344 -2.902344 L 4.738281 -3 L 4.785156 -2.960938 Z M 4.785156 -1.90625" transform="translate(141.313 92.03)"/></g></g></g><g fill="#FF5757"><g><g><path d="M 3.875 0.144531 C 5.382812 0.144531 6.320312 -0.753906 6.320312 -2.097656 L 5.347656 -2.121094 C 5.382812 -1.234375 4.820312 -0.648438 3.863281 -0.648438 C 2.816406 -0.648438 2.0625 -1.617188 2.0625 -3.082031 C 2.0625 -4.53125 2.757812 -5.503906 3.8125 -5.503906 C 4.699219 -5.503906 5.300781 -4.988281 5.289062 -4.210938 L 6.273438 -4.210938 C 6.273438 -5.445312 5.289062 -6.261719 3.835938 -6.261719 C 2.148438 -6.261719 1.007812 -4.988281 1.007812 -3.058594 C 1.007812 -1.140625 2.195312 0.144531 3.875 0.144531 Z M 3.875 0.144531" transform="translate(148.71 92.03)"/></g></g></g><g fill="#FF5757"><g><g><path d="M 6.871094 0 L 4.210938 -3.539062 L 6.65625 -6.1875 L 5.445312 -6.1875 L 3.417969 -3.992188 L 2.339844 -3.992188 L 2.339844 -8.800781 L 1.308594 -8.800781 L 1.308594 0 L 2.339844 0 L 2.339844 -3.152344 L 3.453125 -3.152344 L 5.695312 0 Z M 6.871094 0" transform="translate(155.999 92.03)"/></g></g></g><g fill="#FF5757"><g><g><path d="M 2.410156 0 L 3.609375 -7.53125 L 3.683594 -7.53125 L 4.882812 0 L 6.007812 0 L 6.738281 -8.515625 L 5.863281 -8.515625 L 5.3125 -1.257812 L 5.242188 -1.257812 L 4.042969 -8.515625 L 3.261719 -8.515625 L 2.050781 -1.257812 L 1.980469 -1.257812 L 1.425781 -8.515625 L 0.550781 -8.515625 L 1.28125 0 Z M 2.410156 0" transform="translate(169.282 92.03)"/></g></g></g><g fill="#FF5757"><g><g><path d="M 3.800781 0.15625 C 4.855469 0.15625 5.78125 -0.433594 6.234375 -1.34375 L 5.671875 -1.714844 C 5.359375 -0.996094 4.628906 -0.574219 3.800781 -0.574219 C 2.589844 -0.574219 1.90625 -1.5 1.941406 -2.890625 L 6.34375 -2.890625 C 6.464844 -5 5.382812 -6.261719 3.65625 -6.261719 C 1.941406 -6.261719 0.910156 -4.964844 0.910156 -3.035156 C 0.910156 -1.042969 2.0625 0.15625 3.800781 0.15625 Z M 1.929688 -3.441406 C 1.929688 -4.796875 2.613281 -5.578125 3.644531 -5.578125 C 4.699219 -5.578125 5.3125 -4.726562 5.3125 -3.441406 Z M 1.929688 -3.441406" transform="translate(176.57 92.03)"/></g></g></g><g fill="#FF5757"><g><g><path d="M 4.089844 0.144531 C 5.613281 0.144531 6.535156 -1.117188 6.535156 -3.058594 C 6.535156 -5 5.625 -6.261719 4.101562 -6.261719 C 3.226562 -6.261719 2.507812 -5.828125 2.328125 -5.203125 L 2.253906 -5.203125 L 2.253906 -8.742188 L 1.222656 -8.742188 L 1.222656 0 L 2.171875 0 L 2.171875 -0.933594 L 2.242188 -0.933594 C 2.496094 -0.265625 3.035156 0.144531 4.089844 0.144531 Z M 3.777344 -0.585938 C 2.636719 -0.585938 2.230469 -1.257812 2.230469 -3.046875 C 2.230469 -4.652344 2.507812 -5.527344 3.753906 -5.527344 C 4.796875 -5.527344 5.480469 -4.558594 5.480469 -3.058594 C 5.480469 -1.558594 4.808594 -0.585938 3.777344 -0.585938 Z M 3.777344 -0.585938" transform="translate(183.86 92.03)"/></g></g></g><g fill="#FF5757"><g><g><path d="M 3.621094 0 C 5.433594 0 6.644531 -1.714844 6.644531 -4.28125 C 6.644531 -6.765625 5.445312 -8.515625 3.632812 -8.515625 L 1.042969 -8.515625 L 1.042969 0 Z M 2.085938 -7.710938 L 3.527344 -7.710938 C 4.761719 -7.710938 5.578125 -6.285156 5.578125 -4.28125 C 5.578125 -2.195312 4.761719 -0.804688 3.527344 -0.804688 L 2.085938 -0.804688 Z M 2.085938 -7.710938" transform="translate(197.143 92.03)"/></g></g></g><g fill="#FF5757"><g><g><path d="M 3.800781 0.15625 C 4.855469 0.15625 5.78125 -0.433594 6.234375 -1.34375 L 5.671875 -1.714844 C 5.359375 -0.996094 4.628906 -0.574219 3.800781 -0.574219 C 2.589844 -0.574219 1.90625 -1.5 1.941406 -2.890625 L 6.34375 -2.890625 C 6.464844 -5 5.382812 -6.261719 3.65625 -6.261719 C 1.941406 -6.261719 0.910156 -4.964844 0.910156 -3.035156 C 0.910156 -1.042969 2.0625 0.15625 3.800781 0.15625 Z M 1.929688 -3.441406 C 1.929688 -4.796875 2.613281 -5.578125 3.644531 -5.578125 C 4.699219 -5.578125 5.3125 -4.726562 5.3125 -3.441406 Z M 1.929688 -3.441406" transform="translate(204.431 92.03)"/></g></g></g><g fill="#FF5757"><g><g><path d="M 4.367188 0 L 6.476562 -6.1875 L 5.433594 -6.1875 L 3.835938 -0.851562 L 3.585938 -0.851562 L 1.847656 -6.1875 L 0.804688 -6.1875 L 3 0 Z M 4.367188 0" transform="translate(211.72 92.03)"/></g></g></g><g fill="#FF5757"><g><g><path d="M 3.800781 0.15625 C 4.855469 0.15625 5.78125 -0.433594 6.234375 -1.34375 L 5.671875 -1.714844 C 5.359375 -0.996094 4.628906 -0.574219 3.800781 -0.574219 C 2.589844 -0.574219 1.90625 -1.5 1.941406 -2.890625 L 6.34375 -2.890625 C 6.464844 -5 5.382812 -6.261719 3.65625 -6.261719 C 1.941406 -6.261719 0.910156 -4.964844 0.910156 -3.035156 C 0.910156 -1.042969 2.0625 0.15625 3.800781 0.15625 Z M 1.929688 -3.441406 C 1.929688 -4.796875 2.613281 -5.578125 3.644531 -5.578125 C 4.699219 -5.578125 5.3125 -4.726562 5.3125 -3.441406 Z M 1.929688 -3.441406" transform="translate(219.01 92.03)"/></g></g></g><g fill="#FF5757"><g><g><path d="M 5.15625 -1.703125 C 5.15625 -1.1875 4.75 -0.753906 4.234375 -0.753906 C 3.71875 -0.753906 3.285156 -1.175781 3.285156 -1.691406 L 3.285156 -8.742188 L 0.457031 -8.742188 L 0.457031 -7.988281 L 2.265625 -7.988281 L 2.253906 -1.835938 C 2.253906 -0.828125 3.082031 0 4.089844 0 C 5.359375 0 5.925781 -0.828125 5.925781 -1.835938 L 5.925781 -2.253906 L 5.15625 -2.253906 Z M 5.15625 -1.703125" transform="translate(226.298 92.03)"/></g></g></g><g fill="#FF5757"><g><g><path d="M 3.644531 0.144531 C 5.3125 0.144531 6.414062 -1.140625 6.414062 -3.058594 C 6.414062 -4.976562 5.3125 -6.261719 3.644531 -6.261719 C 1.980469 -6.261719 0.863281 -4.976562 0.863281 -3.058594 C 0.863281 -1.140625 1.980469 0.144531 3.644531 0.144531 Z M 3.644531 -0.601562 C 2.613281 -0.601562 1.929688 -1.59375 1.929688 -3.09375 C 1.929688 -4.546875 2.613281 -5.515625 3.644531 -5.515625 C 4.675781 -5.515625 5.359375 -4.53125 5.359375 -3.070312 C 5.359375 -1.582031 4.675781 -0.601562 3.644531 -0.601562 Z M 3.644531 -0.601562" transform="translate(233.107 92.03)"/></g></g></g><g fill="#FF5757"><g><g><path d="M 4.078125 0.144531 C 5.613281 0.144531 6.535156 -1.117188 6.535156 -3.058594 C 6.535156 -5 5.613281 -6.261719 4.101562 -6.261719 C 3.152344 -6.261719 2.375 -5.660156 2.277344 -4.988281 L 2.21875 -4.988281 L 2.21875 -6.117188 L 1.222656 -6.117188 L 1.222656 2.375 L 2.253906 2.375 L 2.253906 -1.042969 L 2.300781 -1.042969 C 2.664062 -0.144531 3.320312 0.144531 4.078125 0.144531 Z M 3.777344 -0.585938 C 2.867188 -0.585938 2.230469 -1.210938 2.230469 -3.128906 C 2.230469 -4.917969 2.78125 -5.527344 3.765625 -5.527344 C 4.808594 -5.527344 5.480469 -4.582031 5.480469 -3.046875 C 5.480469 -1.570312 4.796875 -0.585938 3.777344 -0.585938 Z M 3.777344 -0.585938" transform="translate(240.396 92.03)"/></g></g></g><g fill="#FF5757"><g><g><path d="M 3.800781 0.15625 C 4.855469 0.15625 5.78125 -0.433594 6.234375 -1.34375 L 5.671875 -1.714844 C 5.359375 -0.996094 4.628906 -0.574219 3.800781 -0.574219 C 2.589844 -0.574219 1.90625 -1.5 1.941406 -2.890625 L 6.34375 -2.890625 C 6.464844 -5 5.382812 -6.261719 3.65625 -6.261719 C 1.941406 -6.261719 0.910156 -4.964844 0.910156 -3.035156 C 0.910156 -1.042969 2.0625 0.15625 3.800781 0.15625 Z M 1.929688 -3.441406 C 1.929688 -4.796875 2.613281 -5.578125 3.644531 -5.578125 C 4.699219 -5.578125 5.3125 -4.726562 5.3125 -3.441406 Z M 1.929688 -3.441406" transform="translate(247.685 92.03)"/></g></g></g><g fill="#FF5757"><g><g><path d="M 7.171875 -4.652344 C 7.171875 -5.589844 6.429688 -6.222656 5.589844 -6.210938 C 5.3125 -6.1875 4.171875 -6.054688 3.800781 -4.882812 L 3.742188 -4.882812 L 3.742188 -6.1875 L 0.960938 -6.1875 L 0.960938 -5.433594 L 2.746094 -5.433594 L 2.746094 -0.753906 L 0.960938 -0.753906 L 0.960938 0 L 6.117188 0 L 6.117188 -0.753906 L 3.777344 -0.753906 L 3.777344 -3.847656 C 3.777344 -4.738281 4.339844 -5.359375 5.179688 -5.359375 C 5.71875 -5.359375 6.164062 -4.882812 6.164062 -4.339844 L 6.164062 -3.574219 L 7.171875 -3.574219 Z M 7.171875 -4.652344" transform="translate(254.974 92.03)"/></g></g></g><g clip-path="url(#c)"><path fill="#FECE66" d="M 434.632812 76.140625 C 434.632812 77.550781 434.5625 78.960938 434.425781 80.367188 C 434.289062 81.773438 434.082031 83.167969 433.804688 84.550781 C 433.53125 85.9375 433.1875 87.304688 432.777344 88.65625 C 432.367188 90.007812 431.890625 91.335938 431.351562 92.640625 C 430.808594 93.949219 430.207031 95.222656 429.542969 96.46875 C 428.875 97.714844 428.148438 98.925781 427.367188 100.097656 C 426.582031 101.273438 425.742188 102.40625 424.84375 103.496094 C 423.949219 104.589844 423 105.632812 422.003906 106.632812 C 421.003906 107.632812 419.957031 108.578125 418.867188 109.476562 C 417.773438 110.371094 416.640625 111.210938 415.46875 111.996094 C 414.292969 112.78125 413.082031 113.507812 411.835938 114.171875 C 410.59375 114.839844 409.316406 115.441406 408.011719 115.980469 C 406.707031 116.523438 405.378906 116.996094 404.027344 117.40625 C 402.675781 117.816406 401.308594 118.160156 399.921875 118.4375 C 398.535156 118.710938 397.140625 118.917969 395.734375 119.058594 C 394.328125 119.195312 392.921875 119.265625 391.507812 119.265625 C 390.097656 119.265625 388.6875 119.195312 387.28125 119.058594 C 385.875 118.917969 384.480469 118.710938 383.09375 118.4375 C 381.710938 118.160156 380.339844 117.816406 378.988281 117.40625 C 377.636719 116.996094 376.308594 116.523438 375.003906 115.980469 C 373.699219 115.441406 372.425781 114.839844 371.179688 114.171875 C 369.933594 113.507812 368.722656 112.78125 367.550781 111.996094 C 366.375 111.210938 365.242188 110.371094 364.148438 109.476562 C 363.058594 108.578125 362.011719 107.632812 361.015625 106.632812 C 360.015625 105.632812 359.070312 104.589844 358.171875 103.496094 C 357.277344 102.40625 356.4375 101.273438 355.652344 100.097656 C 354.867188 98.925781 354.140625 97.714844 353.476562 96.46875 C 352.808594 95.222656 352.207031 93.949219 351.667969 92.640625 C 351.125 91.335938 350.652344 90.007812 350.242188 88.65625 C 349.832031 87.304688 349.488281 85.9375 349.210938 84.550781 C 348.9375 83.167969 348.730469 81.773438 348.589844 80.367188 C 348.453125 78.960938 348.382812 77.550781 348.382812 76.140625 C 348.382812 74.726562 348.453125 73.316406 348.589844 71.914062 C 348.730469 70.507812 348.9375 69.109375 349.210938 67.726562 C 349.488281 66.339844 349.832031 64.972656 350.242188 63.621094 C 350.652344 62.269531 351.125 60.941406 351.667969 59.636719 C 352.207031 58.332031 352.808594 57.054688 353.476562 55.808594 C 354.140625 54.566406 354.867188 53.355469 355.652344 52.179688 C 356.4375 51.007812 357.277344 49.871094 358.171875 48.78125 C 359.070312 47.6875 360.015625 46.644531 361.015625 45.644531 C 362.011719 44.648438 363.058594 43.699219 364.148438 42.804688 C 365.242188 41.90625 366.375 41.066406 367.550781 40.28125 C 368.722656 39.496094 369.933594 38.773438 371.179688 38.105469 C 372.425781 37.441406 373.699219 36.835938 375.003906 36.296875 C 376.308594 35.757812 377.636719 35.28125 378.988281 34.871094 C 380.339844 34.460938 381.710938 34.117188 383.09375 33.84375 C 384.480469 33.566406 385.875 33.359375 387.28125 33.222656 C 388.6875 33.082031 390.097656 33.015625 391.507812 33.015625 C 392.921875 33.015625 394.328125 33.082031 395.734375 33.222656 C 397.140625 33.359375 398.535156 33.566406 399.921875 33.84375 C 401.308594 34.117188 402.675781 34.460938 404.027344 34.871094 C 405.378906 35.28125 406.707031 35.757812 408.011719 36.296875 C 409.316406 36.835938 410.59375 37.441406 411.835938 38.105469 C 413.082031 38.773438 414.292969 39.496094 415.46875 40.28125 C 416.640625 41.066406 417.773438 41.90625 418.867188 42.804688 C 419.957031 43.699219 421.003906 44.648438 422.003906 45.644531 C 423 46.644531 423.949219 47.6875 424.84375 48.78125 C 425.742188 49.871094 426.582031 51.007812 427.367188 52.179688 C 428.148438 53.355469 428.875 54.566406 429.542969 55.808594 C 430.207031 57.054688 430.808594 58.332031 431.351562 59.636719 C 431.890625 60.941406 432.367188 62.269531 432.777344 63.621094 C 433.1875 64.972656 433.53125 66.339844 433.804688 67.726562 C 434.082031 69.109375 434.289062 70.507812 434.425781 71.914062 C 434.5625 73.316406 434.632812 74.726562 434.632812 76.140625 Z M 434.632812 76.140625"/></g><g clip-path="url(#d)"><path fill="#F5B540" d="M 414.667969 57.710938 C 414.34375 57.382812 413.917969 57.21875 413.488281 57.21875 L 369.527344 57.21875 C 369.101562 57.21875 368.671875 57.382812 368.347656 57.710938 C 368.019531 58.03125 367.859375 58.460938 367.859375 58.890625 L 367.859375 93.390625 C 367.859375 93.816406 368.019531 94.246094 368.347656 94.570312 L 393.007812 119.226562 C 415.628906 118.453125 433.820312 100.261719 434.59375 77.636719 Z M 414.667969 57.710938"/></g><path fill="#495057" d="M 415.15625 93.390625 C 415.15625 93.816406 414.996094 94.242188 414.667969 94.570312 C 414.34375 94.894531 413.914062 95.058594 413.488281 95.058594 L 369.527344 95.058594 C 369.101562 95.058594 368.675781 94.894531 368.347656 94.570312 C 368.023438 94.242188 367.859375 93.816406 367.859375 93.390625 L 367.859375 65.734375 L 415.15625 65.734375 Z M 415.15625 93.390625"/><path fill="#1E262E" d="M 415.15625 65.734375 L 367.859375 65.734375 L 367.859375 58.890625 C 367.859375 58.460938 368.023438 58.035156 368.347656 57.710938 C 368.675781 57.382812 369.101562 57.21875 369.527344 57.21875 L 413.488281 57.21875 C 413.914062 57.21875 414.34375 57.382812 414.667969 57.710938 C 414.996094 58.035156 415.15625 58.460938 415.15625 58.890625 Z M 415.15625 65.734375"/><path fill="#CCCBCA" d="M 372.03125 88.820312 L 389.984375 88.820312 L 389.984375 90.691406 L 372.03125 90.691406 Z M 372.03125 88.820312"/><path fill="#FFF" d="M 372.03125 85.074219 L 391.851562 85.074219 L 391.851562 86.949219 L 372.03125 86.949219 Z M 372.03125 85.074219"/><path fill="#CCCBCA" d="M 378.246094 81.332031 L 389.984375 81.332031 L 389.984375 83.203125 L 378.246094 83.203125 Z M 378.246094 81.332031"/><path fill="#FFF" d="M 372.03125 73.84375 L 383.769531 73.84375 L 383.769531 75.71875 L 372.03125 75.71875 Z M 372.03125 73.84375"/><path fill="#CCCBCA" d="M 372.03125 70.101562 L 377.902344 70.101562 L 377.902344 71.972656 L 372.03125 71.972656 Z M 372.03125 70.101562"/><path fill="#FFF" d="M 391.851562 88.820312 L 397.375 88.820312 L 397.375 90.691406 L 391.851562 90.691406 Z M 391.851562 88.820312"/><path fill="#CCCBCA" d="M 393.722656 85.074219 L 403.246094 85.074219 L 403.246094 86.949219 L 393.722656 86.949219 Z M 393.722656 85.074219"/><path fill="#FFF" d="M 391.851562 81.332031 L 397.375 81.332031 L 397.375 83.203125 L 391.851562 83.203125 Z M 391.851562 81.332031"/><path fill="#FFF" d="M 372.03125 81.332031 L 376.375 81.332031 L 376.375 83.203125 L 372.03125 83.203125 Z M 372.03125 81.332031"/><path fill="#CCCBCA" d="M 385.640625 73.84375 L 403.246094 73.84375 L 403.246094 75.71875 L 385.640625 75.71875 Z M 385.640625 73.84375"/><path fill="#FFF" d="M 379.769531 70.101562 L 397.375 70.101562 L 397.375 71.972656 L 379.769531 71.972656 Z M 379.769531 70.101562"/><path fill="#CCCBCA" d="M 399.246094 88.820312 L 410.984375 88.820312 L 410.984375 90.691406 L 399.246094 90.691406 Z M 399.246094 88.820312"/><path fill="#FFF" d="M 405.117188 85.074219 L 410.984375 85.074219 L 410.984375 86.949219 L 405.117188 86.949219 Z M 405.117188 85.074219"/><path fill="#FFF" d="M 399.246094 81.332031 L 405.117188 81.332031 L 405.117188 83.203125 L 399.246094 83.203125 Z M 399.246094 81.332031"/><path fill="#FFF" d="M 405.117188 73.84375 L 410.984375 73.84375 L 410.984375 75.71875 L 405.117188 75.71875 Z M 405.117188 73.84375"/><path fill="#FFF" d="M 373.425781 61.476562 C 373.425781 61.660156 373.386719 61.839844 373.316406 62.007812 C 373.246094 62.179688 373.148438 62.328125 373.015625 62.460938 C 372.886719 62.589844 372.734375 62.691406 372.566406 62.761719 C 372.394531 62.832031 372.21875 62.867188 372.03125 62.867188 C 371.847656 62.867188 371.671875 62.832031 371.5 62.761719 C 371.328125 62.691406 371.179688 62.589844 371.050781 62.460938 C 370.917969 62.328125 370.816406 62.179688 370.746094 62.007812 C 370.675781 61.839844 370.640625 61.660156 370.640625 61.476562 C 370.640625 61.292969 370.675781 61.113281 370.746094 60.945312 C 370.816406 60.773438 370.917969 60.625 371.050781 60.492188 C 371.179688 60.363281 371.328125 60.261719 371.5 60.191406 C 371.671875 60.121094 371.847656 60.085938 372.03125 60.085938 C 372.21875 60.085938 372.394531 60.121094 372.566406 60.191406 C 372.734375 60.261719 372.886719 60.363281 373.015625 60.492188 C 373.148438 60.625 373.246094 60.773438 373.316406 60.945312 C 373.386719 61.113281 373.425781 61.292969 373.425781 61.476562 Z M 373.425781 61.476562"/><path fill="#FFF" d="M 377.597656 61.476562 C 377.597656 61.660156 377.5625 61.839844 377.492188 62.007812 C 377.421875 62.179688 377.320312 62.328125 377.191406 62.460938 C 377.058594 62.589844 376.910156 62.691406 376.738281 62.761719 C 376.566406 62.832031 376.390625 62.867188 376.207031 62.867188 C 376.023438 62.867188 375.84375 62.832031 375.671875 62.761719 C 375.503906 62.691406 375.351562 62.589844 375.222656 62.460938 C 375.09375 62.328125 374.992188 62.179688 374.921875 62.007812 C 374.851562 61.839844 374.816406 61.660156 374.816406 61.476562 C 374.816406 61.292969 374.851562 61.113281 374.921875 60.945312 C 374.992188 60.773438 375.09375 60.625 375.222656 60.492188 C 375.351562 60.363281 375.503906 60.261719 375.671875 60.191406 C 375.84375 60.121094 376.023438 60.085938 376.207031 60.085938 C 376.390625 60.085938 376.566406 60.121094 376.738281 60.191406 C 376.910156 60.261719 377.058594 60.363281 377.191406 60.492188 C 377.320312 60.625 377.421875 60.773438 377.492188 60.945312 C 377.5625 61.113281 377.597656 61.292969 377.597656 61.476562 Z M 377.597656 61.476562"/><path fill="#FFF" d="M 381.769531 61.476562 C 381.769531 61.660156 381.734375 61.839844 381.664062 62.007812 C 381.59375 62.179688 381.492188 62.328125 381.363281 62.460938 C 381.234375 62.589844 381.082031 62.691406 380.910156 62.761719 C 380.742188 62.832031 380.5625 62.867188 380.378906 62.867188 C 380.195312 62.867188 380.015625 62.832031 379.847656 62.761719 C 379.675781 62.691406 379.527344 62.589844 379.394531 62.460938 C 379.265625 62.328125 379.164062 62.179688 379.09375 62.007812 C 379.023438 61.839844 378.988281 61.660156 378.988281 61.476562 C 378.988281 61.292969 379.023438 61.113281 379.09375 60.945312 C 379.164062 60.773438 379.265625 60.625 379.394531 60.492188 C 379.527344 60.363281 379.675781 60.261719 379.847656 60.191406 C 380.015625 60.121094 380.195312 60.085938 380.378906 60.085938 C 380.5625 60.085938 380.742188 60.121094 380.910156 60.191406 C 381.082031 60.261719 381.234375 60.363281 381.363281 60.492188 C 381.492188 60.625 381.59375 60.773438 381.664062 60.945312 C 381.734375 61.113281 381.769531 61.292969 381.769531 61.476562 Z M 381.769531 61.476562"/><path fill="#E6E9ED" d="M 362.191406 53.210938 L 364.261719 53.210938 L 364.261719 87.382812 L 362.191406 87.382812 Z M 362.191406 53.210938"/><path fill="#434A54" d="M 364.261719 53.222656 L 421.226562 53.222656 L 421.226562 87.371094 L 364.261719 87.371094 Z M 364.261719 53.222656"/><path fill="#CCD1D9" d="M 393.261719 94.101562 C 393.261719 94.308594 393.222656 94.503906 393.144531 94.695312 C 393.066406 94.886719 392.953125 95.054688 392.804688 95.199219 C 392.660156 95.34375 392.492188 95.457031 392.300781 95.535156 C 392.113281 95.613281 391.914062 95.652344 391.707031 95.652344 C 391.503906 95.652344 391.304688 95.613281 391.113281 95.535156 C 390.921875 95.457031 390.753906 95.34375 390.609375 95.199219 C 390.464844 95.054688 390.351562 94.886719 390.273438 94.695312 C 390.195312 94.503906 390.15625 94.308594 390.15625 94.101562 C 390.15625 93.894531 390.195312 93.695312 390.273438 93.507812 C 390.351562 93.316406 390.464844 93.148438 390.609375 93.003906 C 390.753906 92.855469 390.921875 92.746094 391.113281 92.667969 C 391.304688 92.585938 391.503906 92.546875 391.707031 92.546875 C 391.914062 92.546875 392.113281 92.585938 392.300781 92.667969 C 392.492188 92.746094 392.660156 92.855469 392.804688 93.003906 C 392.953125 93.148438 393.066406 93.316406 393.144531 93.507812 C 393.222656 93.695312 393.261719 93.894531 393.261719 94.101562 Z M 393.261719 94.101562"/><g clip-path="url(#e)"><path fill="#CCD1D9" d="M 424.332031 94.640625 L 424.332031 96.6875 C 424.332031 98.4375 422.976562 99.792969 421.226562 99.792969 C 420.492188 99.792969 410.214844 99.792969 398.429688 99.792969 C 394.019531 99.792969 389.398438 99.792969 384.984375 99.792969 C 373.199219 99.792969 362.925781 99.792969 362.191406 99.792969 C 360.441406 99.792969 359.082031 98.4375 359.082031 96.6875 L 359.082031 94.640625 C 359.082031 96.347656 360.480469 97.746094 362.191406 97.746094 L 421.226562 97.746094 C 422.933594 97.746094 424.332031 96.347656 424.332031 94.640625 Z M 424.332031 94.640625"/></g><g clip-path="url(#f)"><path fill="#CCD1D9" d="M 398.429688 99.792969 L 400.5 109.109375 L 382.914062 109.109375 L 384.984375 99.792969 C 389.398438 99.792969 394.019531 99.792969 398.429688 99.792969 Z M 398.429688 99.792969"/></g><g clip-path="url(#g)"><path fill="#E6E9ED" d="M 391.707031 90.476562 L 359.082031 90.476562 L 359.082031 94.640625 C 359.082031 96.347656 360.480469 97.746094 362.191406 97.746094 L 421.226562 97.746094 C 422.933594 97.746094 424.332031 96.347656 424.332031 94.640625 L 424.332031 90.476562 Z M 391.707031 95.652344 C 390.847656 95.652344 390.15625 94.960938 390.15625 94.101562 C 390.15625 93.242188 390.847656 92.546875 391.707031 92.546875 C 392.566406 92.546875 393.261719 93.242188 393.261719 94.101562 C 393.261719 94.960938 392.566406 95.652344 391.707031 95.652344 Z M 391.707031 95.652344"/></g><g clip-path="url(#h)"><path fill="#656D78" d="M 424.332031 53.234375 L 424.332031 90.476562 L 359.082031 90.476562 L 359.082031 53.234375 C 359.082031 51.527344 360.480469 50.128906 362.191406 50.128906 L 421.226562 50.128906 C 422.933594 50.128906 424.332031 51.523438 424.332031 53.234375 Z M 421.226562 87.371094 L 421.226562 53.210938 L 362.191406 53.210938 L 362.191406 87.371094 Z M 421.226562 87.371094"/></g><path fill="#AAB2BD" d="M 398.660156 100.828125 L 398.429688 99.792969 C 394.019531 99.792969 389.398438 99.792969 384.984375 99.792969 L 384.753906 100.828125 Z M 398.660156 100.828125"/><g clip-path="url(#i)"><path fill="#E6E9ED" d="M 402.066406 109.621094 L 381.351562 109.621094 C 381.066406 109.621094 380.832031 109.390625 380.832031 109.105469 C 380.832031 108.820312 381.066406 108.585938 381.351562 108.585938 L 402.066406 108.585938 C 402.351562 108.585938 402.582031 108.820312 402.582031 109.105469 C 402.582031 109.390625 402.351562 109.621094 402.066406 109.621094 Z M 402.066406 109.621094"/></g><path fill="#FFCE54" d="M 371.511719 56.84375 L 367.367188 56.84375 C 367.082031 56.84375 366.851562 56.613281 366.851562 56.328125 C 366.851562 56.042969 367.082031 55.808594 367.367188 55.808594 L 371.511719 55.808594 C 371.796875 55.808594 372.03125 56.042969 372.03125 56.328125 C 372.03125 56.613281 371.796875 56.84375 371.511719 56.84375 Z M 371.511719 56.84375"/><path fill="#AC92EC" d="M 390.15625 59.949219 L 375.65625 59.949219 C 375.367188 59.949219 375.136719 59.71875 375.136719 59.433594 C 375.136719 59.148438 375.367188 58.914062 375.65625 58.914062 L 390.15625 58.914062 C 390.441406 58.914062 390.671875 59.148438 390.671875 59.433594 C 390.671875 59.71875 390.441406 59.949219 390.15625 59.949219 Z M 390.15625 59.949219"/><path fill="#AC92EC" d="M 373.582031 59.949219 L 368.40625 59.949219 C 368.117188 59.949219 367.886719 59.71875 367.886719 59.433594 C 367.886719 59.148438 368.117188 58.914062 368.40625 58.914062 L 373.582031 58.914062 C 373.867188 58.914062 374.101562 59.148438 374.101562 59.433594 C 374.101562 59.71875 373.867188 59.949219 373.582031 59.949219 Z M 373.582031 59.949219"/><path fill="#5D9CEC" d="M 402.582031 63.054688 L 389.117188 63.054688 C 388.832031 63.054688 388.601562 62.824219 388.601562 62.539062 C 388.601562 62.253906 388.832031 62.019531 389.117188 62.019531 L 402.582031 62.019531 C 402.867188 62.019531 403.101562 62.253906 403.101562 62.539062 C 403.101562 62.824219 402.867188 63.054688 402.582031 63.054688 Z M 402.582031 63.054688"/><path fill="#5D9CEC" d="M 387.046875 63.054688 L 369.441406 63.054688 C 369.15625 63.054688 368.921875 62.824219 368.921875 62.539062 C 368.921875 62.253906 369.15625 62.019531 369.441406 62.019531 L 387.046875 62.019531 C 387.332031 62.019531 387.566406 62.253906 387.566406 62.539062 C 387.566406 62.824219 387.332031 63.054688 387.046875 63.054688 Z M 387.046875 63.054688"/><path fill="#ED5565" d="M 374.621094 69.265625 L 371.515625 69.265625 C 371.226562 69.265625 370.996094 69.035156 370.996094 68.75 C 370.996094 68.464844 371.226562 68.230469 371.515625 68.230469 L 374.621094 68.230469 C 374.90625 68.230469 375.140625 68.464844 375.140625 68.75 C 375.140625 69.035156 374.90625 69.265625 374.621094 69.265625 Z M 374.621094 69.265625"/><path fill="#ED5565" d="M 392.066406 69.265625 L 376.691406 69.265625 C 376.40625 69.265625 376.175781 69.035156 376.175781 68.75 C 376.175781 68.464844 376.40625 68.230469 376.691406 68.230469 L 392.066406 68.230469 C 392.351562 68.230469 392.585938 68.464844 392.585938 68.75 C 392.585938 69.035156 392.351562 69.265625 392.066406 69.265625 Z M 392.066406 69.265625"/><path fill="#A0D468" d="M 394.296875 66.160156 L 370.476562 66.160156 C 370.191406 66.160156 369.957031 65.929688 369.957031 65.644531 C 369.957031 65.359375 370.191406 65.125 370.476562 65.125 L 394.296875 65.125 C 394.582031 65.125 394.816406 65.359375 394.816406 65.644531 C 394.816406 65.929688 394.582031 66.160156 394.296875 66.160156 Z M 394.296875 66.160156"/><path fill="#4FC1E9" d="M 395.335938 72.371094 L 386.015625 72.371094 C 385.726562 72.371094 385.496094 72.140625 385.496094 71.855469 C 385.496094 71.570312 385.726562 71.335938 386.015625 71.335938 L 395.335938 71.335938 C 395.621094 71.335938 395.851562 71.570312 395.851562 71.855469 C 395.851562 72.140625 395.621094 72.371094 395.335938 72.371094 Z M 395.335938 72.371094"/><path fill="#A0D468" d="M 388.085938 75.476562 L 370.476562 75.476562 C 370.191406 75.476562 369.960938 75.246094 369.960938 74.960938 C 369.960938 74.675781 370.191406 74.441406 370.476562 74.441406 L 388.085938 74.441406 C 388.371094 74.441406 388.601562 74.675781 388.601562 74.960938 C 388.601562 75.246094 388.371094 75.476562 388.085938 75.476562 Z M 388.085938 75.476562"/><path fill="#AC92EC" d="M 376.691406 81.6875 L 368.40625 81.6875 C 368.117188 81.6875 367.886719 81.457031 367.886719 81.171875 C 367.886719 80.886719 368.117188 80.652344 368.40625 80.652344 L 376.691406 80.652344 C 376.976562 80.652344 377.207031 80.886719 377.207031 81.171875 C 377.207031 81.457031 376.976562 81.6875 376.691406 81.6875 Z M 376.691406 81.6875"/><path fill="#5D9CEC" d="M 397.40625 78.582031 L 382.90625 78.582031 C 382.617188 78.582031 382.386719 78.351562 382.386719 78.066406 C 382.386719 77.78125 382.617188 77.546875 382.90625 77.546875 L 397.40625 77.546875 C 397.691406 77.546875 397.921875 77.78125 397.921875 78.066406 C 397.921875 78.351562 397.691406 78.582031 397.40625 78.582031 Z M 397.40625 78.582031"/><path fill="#5D9CEC" d="M 380.832031 78.582031 L 369.441406 78.582031 C 369.15625 78.582031 368.921875 78.351562 368.921875 78.066406 C 368.921875 77.78125 369.15625 77.546875 369.441406 77.546875 L 380.832031 77.546875 C 381.117188 77.546875 381.351562 77.78125 381.351562 78.066406 C 381.351562 78.351562 381.117188 78.582031 380.832031 78.582031 Z M 380.832031 78.582031"/><path fill="#FFCE54" d="M 371.511719 84.792969 L 367.367188 84.792969 C 367.082031 84.792969 366.851562 84.5625 366.851562 84.277344 C 366.851562 83.992188 367.082031 83.757812 367.367188 83.757812 L 371.511719 83.757812 C 371.796875 83.757812 372.03125 83.992188 372.03125 84.277344 C 372.03125 84.5625 371.796875 84.792969 371.511719 84.792969 Z M 371.511719 84.792969"/><path fill="#A0D468" d="M 396.371094 75.476562 L 390.15625 75.476562 C 389.871094 75.476562 389.640625 75.246094 389.640625 74.960938 C 389.640625 74.675781 389.871094 74.441406 390.15625 74.441406 L 396.371094 74.441406 C 396.65625 74.441406 396.890625 74.675781 396.890625 74.960938 C 396.890625 75.246094 396.65625 75.476562 396.371094 75.476562 Z M 396.371094 75.476562"/><path fill="#4FC1E9" d="M 383.941406 72.371094 L 371.515625 72.371094 C 371.226562 72.371094 370.996094 72.140625 370.996094 71.855469 C 370.996094 71.570312 371.226562 71.335938 371.515625 71.335938 L 383.941406 71.335938 C 384.226562 71.335938 384.460938 71.570312 384.460938 71.855469 C 384.460938 72.140625 384.226562 72.371094 383.941406 72.371094 Z M 383.941406 72.371094"/><path fill="#CCD1D9" d="M 362.707031 71.851562 C 362.707031 71.566406 362.476562 71.332031 362.191406 71.332031 L 362.191406 72.367188 C 362.476562 72.367188 362.707031 72.136719 362.707031 71.851562 Z M 362.707031 71.851562"/><path fill="#CCD1D9" d="M 362.707031 74.957031 C 362.707031 74.671875 362.476562 74.4375 362.191406 74.4375 L 362.191406 75.472656 C 362.476562 75.472656 362.707031 75.242188 362.707031 74.957031 Z M 362.707031 74.957031"/><path fill="#CCD1D9" d="M 362.707031 78.0625 C 362.707031 77.777344 362.476562 77.542969 362.191406 77.542969 L 362.191406 78.578125 C 362.476562 78.578125 362.707031 78.347656 362.707031 78.0625 Z M 362.707031 78.0625"/><path fill="#CCD1D9" d="M 362.707031 81.167969 C 362.707031 80.882812 362.476562 80.648438 362.191406 80.648438 L 362.191406 81.683594 C 362.476562 81.683594 362.707031 81.453125 362.707031 81.167969 Z M 362.707031 81.167969"/><path fill="#CCD1D9" d="M 362.707031 84.273438 C 362.707031 83.988281 362.476562 83.753906 362.191406 83.753906 L 362.191406 84.789062 C 362.476562 84.789062 362.707031 84.558594 362.707031 84.273438 Z M 362.707031 84.273438"/><path fill="#CCD1D9" d="M 362.707031 68.746094 C 362.707031 68.460938 362.476562 68.226562 362.191406 68.226562 L 362.191406 69.261719 C 362.476562 69.261719 362.707031 69.03125 362.707031 68.746094 Z M 362.707031 68.746094"/><path fill="#CCD1D9" d="M 362.707031 65.640625 C 362.707031 65.355469 362.476562 65.121094 362.191406 65.121094 L 362.191406 66.15625 C 362.476562 66.15625 362.707031 65.925781 362.707031 65.640625 Z M 362.707031 65.640625"/><path fill="#CCD1D9" d="M 362.707031 62.535156 C 362.707031 62.25 362.476562 62.015625 362.191406 62.015625 L 362.191406 63.050781 C 362.476562 63.050781 362.707031 62.820312 362.707031 62.535156 Z M 362.707031 62.535156"/><path fill="#CCD1D9" d="M 362.707031 59.429688 C 362.707031 59.144531 362.476562 58.910156 362.191406 58.910156 L 362.191406 59.945312 C 362.476562 59.945312 362.707031 59.714844 362.707031 59.429688 Z M 362.707031 59.429688"/><path fill="#CCD1D9" d="M 362.707031 56.324219 C 362.707031 56.039062 362.476562 55.804688 362.191406 55.804688 L 362.191406 56.839844 C 362.476562 56.839844 362.707031 56.609375 362.707031 56.324219 Z M 362.707031 56.324219"/><path fill="#E6E9ED" d="M 391.707031 53.234375 L 421.226562 53.234375 L 421.226562 87.394531 L 391.707031 87.394531 Z M 391.707031 53.234375"/><path fill="#A0D468" d="M 391.707031 55.808594 L 418.117188 55.808594 L 418.117188 66.160156 L 391.707031 66.160156 Z M 391.707031 55.808594"/><path fill="#F5F7FA" d="M 405.660156 79.074219 L 403.617188 82.21875 L 399.476562 82.21875 L 403.617188 76.007812 Z M 405.660156 79.074219"/><path fill="#FFF" d="M 410.351562 71.867188 L 417.082031 82.21875 L 403.617188 82.21875 L 405.660156 79.074219 Z M 410.351562 71.867188"/><path fill="#5D9CEC" d="M 394.816406 68.761719 L 418.117188 68.761719 L 418.117188 82.21875 L 417.082031 82.21875 L 410.351562 71.867188 L 405.660156 79.074219 L 403.617188 76.007812 L 399.476562 82.21875 L 394.816406 82.21875 Z M 394.816406 68.761719"/><path fill="#CCD1D9" d="M 417.601562 84.804688 L 395.332031 84.804688 C 395.046875 84.804688 394.816406 84.574219 394.816406 84.289062 C 394.816406 84 395.046875 83.769531 395.332031 83.769531 L 417.601562 83.769531 C 417.886719 83.769531 418.117188 84 418.117188 84.289062 C 418.117188 84.574219 417.886719 84.804688 417.601562 84.804688 Z M 417.601562 84.804688"/><path fill="#8CC152" d="M 409.3125 58.925781 L 391.707031 58.925781 L 391.707031 59.960938 L 409.3125 59.960938 C 409.597656 59.960938 409.828125 59.730469 409.828125 59.441406 C 409.828125 59.15625 409.597656 58.925781 409.3125 58.925781 Z M 409.3125 58.925781"/><path fill="#8CC152" d="M 398.945312 62.015625 L 391.707031 62.015625 L 391.707031 63.050781 L 398.945312 63.050781 C 399.230469 63.050781 399.460938 62.820312 399.460938 62.535156 C 399.460938 62.25 399.230469 62.015625 398.945312 62.015625 Z M 398.945312 62.015625"/><path fill="#FFCE54" d="M 398.957031 70.832031 C 400.109375 70.832031 401.03125 71.753906 401.03125 72.902344 C 401.03125 74.042969 400.109375 74.972656 398.957031 74.972656 C 397.808594 74.972656 396.886719 74.042969 396.886719 72.902344 C 396.886719 71.753906 397.808594 70.832031 398.957031 70.832031 Z M 398.957031 70.832031"/><path fill="#353B44" d="M 390.671875 53.234375 L 391.707031 53.234375 L 391.707031 87.394531 L 390.671875 87.394531 Z M 390.671875 53.234375"/><path fill="#4A89DC" d="M 390.671875 77.546875 L 391.707031 77.546875 L 391.707031 78.582031 L 390.671875 78.582031 Z M 390.671875 77.546875"/><path fill="#8CC152" d="M 390.671875 74.441406 L 391.707031 74.441406 L 391.707031 75.476562 L 390.671875 75.476562 Z M 390.671875 74.441406"/><path fill="#3BAFDA" d="M 390.671875 71.335938 L 391.707031 71.335938 L 391.707031 72.371094 L 390.671875 72.371094 Z M 390.671875 71.335938"/><path fill="#DA4453" d="M 390.671875 68.230469 L 391.707031 68.230469 L 391.707031 69.265625 L 390.671875 69.265625 Z M 390.671875 68.230469"/><path fill="#8CC152" d="M 390.671875 65.125 L 391.707031 65.125 L 391.707031 66.160156 L 390.671875 66.160156 Z M 390.671875 65.125"/><path fill="#4A89DC" d="M 390.671875 62.019531 L 391.707031 62.019531 L 391.707031 63.054688 L 390.671875 63.054688 Z M 390.671875 62.019531"/><g clip-path="url(#j)"><path fill="#2D3F4E" d="M 444.550781 144.84375 L 441.59375 135.875 C 441.59375 135.871094 441.59375 135.867188 441.59375 135.863281 L 441.53125 135.65625 C 441.5 135.554688 441.515625 135.445312 441.570312 135.351562 C 442.683594 133.476562 443.269531 131.332031 443.269531 129.152344 C 443.269531 122.332031 437.59375 116.78125 430.613281 116.78125 C 423.636719 116.78125 417.957031 122.332031 417.957031 129.152344 C 417.957031 135.972656 423.636719 141.523438 430.613281 141.523438 C 432.277344 141.523438 433.898438 141.210938 435.421875 140.597656 C 435.589844 140.53125 435.78125 140.582031 435.890625 140.714844 C 435.910156 140.722656 435.929688 140.726562 435.945312 140.738281 Z M 445.484375 145.898438 C 445.410156 145.964844 445.316406 145.996094 445.222656 145.996094 C 445.160156 145.996094 445.101562 145.984375 445.046875 145.957031 L 435.59375 141.445312 C 435.570312 141.433594 435.546875 141.421875 435.527344 141.40625 C 433.964844 142.003906 432.3125 142.308594 430.613281 142.308594 C 428.796875 142.308594 427.035156 141.960938 425.375 141.277344 C 423.773438 140.613281 422.332031 139.664062 421.097656 138.457031 C 419.859375 137.246094 418.890625 135.839844 418.210938 134.273438 C 417.507812 132.652344 417.152344 130.929688 417.152344 129.152344 C 417.152344 127.375 417.507812 125.652344 418.210938 124.03125 C 418.890625 122.464844 419.859375 121.058594 421.097656 119.847656 C 422.332031 118.640625 423.773438 117.691406 425.375 117.027344 C 427.035156 116.34375 428.796875 115.996094 430.613281 115.996094 C 432.429688 115.996094 434.195312 116.34375 435.855469 117.027344 C 437.457031 117.691406 438.898438 118.640625 440.132812 119.847656 C 441.367188 121.058594 442.339844 122.464844 443.015625 124.03125 C 443.71875 125.652344 444.074219 127.375 444.074219 129.152344 C 444.074219 130.328125 443.914062 131.496094 443.601562 132.621094 C 443.3125 133.660156 442.890625 134.660156 442.351562 135.597656 L 442.363281 135.640625 L 445.605469 145.480469 C 445.65625 145.632812 445.605469 145.796875 445.484375 145.898438 Z M 440.230469 135.828125 L 442.714844 142.351562 C 442.824219 142.636719 442.515625 142.902344 442.242188 142.761719 L 435.855469 139.480469 C 434.277344 140.246094 432.496094 140.679688 430.613281 140.679688 C 424.101562 140.679688 418.820312 135.519531 418.820312 129.152344 C 418.820312 122.785156 424.101562 117.625 430.613281 117.625 C 437.128906 117.625 442.40625 122.785156 442.40625 129.152344 C 442.40625 131.640625 441.601562 133.941406 440.230469 135.828125"/></g><path fill="#FFF" d="M 432.816406 130.894531 C 432.457031 130.894531 432.167969 131.179688 432.167969 131.527344 C 432.167969 131.878906 432.457031 132.160156 432.816406 132.160156 C 433.171875 132.160156 433.460938 131.878906 433.460938 131.527344 C 433.460938 131.179688 433.171875 130.894531 432.816406 130.894531 Z M 430.613281 130.894531 C 430.257812 130.894531 429.96875 131.179688 429.96875 131.527344 C 429.96875 131.878906 430.257812 132.160156 430.613281 132.160156 C 430.972656 132.160156 431.261719 131.878906 431.261719 131.527344 C 431.261719 131.179688 430.972656 130.894531 430.613281 130.894531 Z M 428.414062 130.894531 C 428.054688 130.894531 427.765625 131.179688 427.765625 131.527344 C 427.765625 131.878906 428.054688 132.160156 428.414062 132.160156 C 428.769531 132.160156 429.058594 131.878906 429.058594 131.527344 C 429.058594 131.179688 428.769531 130.894531 428.414062 130.894531 Z M 433.792969 134.410156 L 434.070312 134.410156 C 434.617188 134.410156 434.980469 134.3125 435.167969 134.117188 C 435.351562 133.921875 435.445312 133.515625 435.445312 132.898438 L 435.445312 131.300781 C 435.445312 130.59375 435.546875 130.089844 435.746094 129.789062 C 435.945312 129.492188 436.300781 129.273438 436.804688 129.140625 C 436.292969 129.019531 435.941406 128.808594 435.742188 128.507812 C 435.542969 128.207031 435.445312 127.703125 435.445312 126.996094 L 435.445312 125.390625 C 435.445312 124.777344 435.351562 124.375 435.164062 124.183594 C 434.972656 123.988281 434.605469 123.894531 434.058594 123.894531 L 433.792969 123.894531 L 433.792969 122.902344 L 434.085938 122.902344 C 434.574219 122.902344 434.957031 122.925781 435.230469 122.976562 C 435.507812 123.03125 435.742188 123.113281 435.929688 123.226562 C 436.179688 123.378906 436.355469 123.59375 436.457031 123.871094 C 436.558594 124.148438 436.609375 124.617188 436.609375 125.269531 L 436.609375 126.882812 C 436.609375 127.539062 436.730469 128 436.976562 128.269531 C 437.222656 128.535156 437.640625 128.667969 438.230469 128.667969 C 438.265625 128.667969 438.3125 128.667969 438.378906 128.664062 C 438.441406 128.660156 438.492188 128.65625 438.523438 128.65625 L 438.523438 129.648438 C 438.488281 129.648438 438.433594 129.644531 438.367188 129.640625 C 438.300781 129.636719 438.25 129.636719 438.21875 129.636719 C 437.632812 129.636719 437.21875 129.769531 436.972656 130.035156 C 436.730469 130.300781 436.609375 130.757812 436.609375 131.40625 L 436.609375 133.03125 C 436.609375 133.683594 436.558594 134.144531 436.457031 134.421875 C 436.355469 134.695312 436.179688 134.910156 435.929688 135.058594 C 435.726562 135.183594 435.480469 135.269531 435.195312 135.324219 C 434.90625 135.375 434.523438 135.402344 434.046875 135.402344 L 433.792969 135.402344 Z M 427.433594 123.894531 L 427.15625 123.894531 C 426.613281 123.894531 426.25 123.992188 426.0625 124.1875 C 425.878906 124.382812 425.785156 124.789062 425.785156 125.40625 L 425.785156 127.003906 C 425.785156 127.710938 425.683594 128.214844 425.484375 128.515625 C 425.28125 128.8125 424.929688 129.03125 424.425781 129.164062 C 424.933594 129.285156 425.289062 129.496094 425.488281 129.796875 C 425.683594 130.09375 425.785156 130.597656 425.785156 131.308594 L 425.785156 132.914062 C 425.785156 133.527344 425.878906 133.929688 426.066406 134.121094 C 426.253906 134.316406 426.621094 134.410156 427.171875 134.410156 L 427.433594 134.410156 L 427.433594 135.402344 L 427.144531 135.402344 C 426.65625 135.402344 426.273438 135.378906 425.996094 135.328125 C 425.722656 135.273438 425.488281 135.191406 425.296875 135.078125 C 425.050781 134.925781 424.875 134.710938 424.773438 134.433594 C 424.671875 134.15625 424.621094 133.6875 424.621094 133.035156 L 424.621094 131.421875 C 424.621094 130.765625 424.496094 130.304688 424.25 130.035156 C 424.003906 129.769531 423.585938 129.636719 422.996094 129.636719 C 422.964844 129.636719 422.917969 129.636719 422.851562 129.640625 C 422.785156 129.644531 422.738281 129.648438 422.707031 129.648438 L 422.707031 128.65625 C 422.742188 128.65625 422.792969 128.660156 422.859375 128.664062 C 422.929688 128.667969 422.980469 128.667969 423.011719 128.667969 C 423.597656 128.667969 424.011719 128.535156 424.253906 128.269531 C 424.5 128.003906 424.621094 127.546875 424.621094 126.898438 L 424.621094 125.273438 C 424.621094 124.621094 424.671875 124.160156 424.773438 123.882812 C 424.875 123.609375 425.050781 123.394531 425.296875 123.246094 C 425.503906 123.121094 425.746094 123.035156 426.035156 122.980469 C 426.320312 122.929688 426.703125 122.902344 427.183594 122.902344 L 427.433594 122.902344 L 427.433594 123.894531"/><g clip-path="url(#k)"><path fill="#F7DF1E" d="M 8.429688 121.40625 L 32.636719 121.40625 L 32.636719 145.613281 L 8.429688 145.613281 Z M 8.429688 121.40625"/></g><path d="M 14.792969 141.636719 L 16.648438 140.515625 C 17.003906 141.148438 17.328125 141.6875 18.109375 141.6875 C 18.855469 141.6875 19.328125 141.394531 19.328125 140.257812 L 19.328125 132.519531 L 21.601562 132.519531 L 21.601562 140.289062 C 21.601562 142.644531 20.222656 143.71875 18.207031 143.71875 C 16.386719 143.71875 15.332031 142.773438 14.792969 141.636719"/><path d="M 22.839844 141.394531 L 24.691406 140.320312 C 25.179688 141.117188 25.8125 141.703125 26.933594 141.703125 C 27.875 141.703125 28.476562 141.230469 28.476562 140.582031 C 28.476562 139.800781 27.859375 139.523438 26.820312 139.070312 L 26.253906 138.824219 C 24.609375 138.125 23.523438 137.25 23.523438 135.394531 C 23.523438 133.691406 24.820312 132.390625 26.851562 132.390625 C 28.300781 132.390625 29.339844 132.894531 30.085938 134.210938 L 28.316406 135.347656 C 27.925781 134.648438 27.503906 134.375 26.851562 134.375 C 26.1875 134.375 25.765625 134.796875 25.765625 135.347656 C 25.765625 136.03125 26.1875 136.308594 27.160156 136.730469 L 27.730469 136.972656 C 29.664062 137.800781 30.753906 138.648438 30.753906 140.546875 C 30.753906 142.59375 29.144531 143.71875 26.984375 143.71875 C 24.871094 143.71875 23.507812 142.710938 22.839844 141.394531"/><g clip-path="url(#l)"><path fill="#E44D26" d="M 37.164062 143.714844 L 35.191406 121.476562 L 56.863281 121.476562 L 54.890625 143.710938 L 46.015625 146.183594 Z M 37.164062 143.714844"/></g><path fill="#F16529" d="M 53.199219 142.292969 L 54.886719 123.292969 L 46.027344 123.292969 L 46.027344 144.292969 Z M 53.199219 142.292969"/><path fill="#EBEBEB" d="M 46.019531 126.023438 L 39.222656 126.023438 L 39.957031 134.269531 L 46.027344 134.269531 L 46.027344 131.542969 L 42.4375 131.542969 L 42.191406 128.75 L 46.027344 128.75 L 46.027344 126.023438 Z M 46.027344 138.617188 L 46.015625 138.621094 L 42.996094 137.800781 L 42.804688 135.625 L 40.078125 135.625 L 40.457031 139.90625 L 46.015625 141.449219 L 46.027344 141.445312 Z M 46.027344 138.617188"/><path fill="#FFF" d="M 46.019531 134.269531 L 49.359375 134.269531 L 49.054688 137.804688 L 46.027344 138.625 L 46.027344 141.464844 L 51.589844 139.914062 L 52.335938 131.539062 L 46.027344 131.539062 Z M 52.75 126.753906 L 52.816406 126.023438 L 46.019531 126.023438 L 46.019531 128.75 L 52.570312 128.75 L 52.625 128.136719 Z M 52.75 126.753906"/><g clip-path="url(#m)"><path fill="#0277BD" d="M 82.308594 121.40625 L 60.011719 121.40625 L 61.976562 143.636719 L 71.160156 146.25 L 80.339844 143.636719 Z M 82.308594 121.40625"/></g><path fill="#039BE5" d="M 71.160156 123.367188 L 71.160156 144.226562 L 78.503906 142.132812 L 80.144531 123.367188 Z M 71.160156 123.367188"/><path fill="#FFF" d="M 77.125 126.636719 L 71.160156 126.636719 L 71.160156 129.253906 L 74.371094 129.253906 L 74.175781 131.867188 L 71.160156 131.867188 L 71.160156 134.484375 L 74.042969 134.484375 L 73.847656 137.425781 L 71.160156 138.339844 L 71.160156 141.085938 L 76.339844 139.386719 L 76.796875 131.867188 Z M 77.125 126.636719"/><path fill="#EEE" d="M 71.160156 126.636719 L 71.160156 129.253906 L 65.320312 129.253906 L 65.125 126.636719 Z M 68.140625 131.867188 L 68.273438 134.484375 L 71.160156 134.484375 L 71.160156 131.867188 Z M 68.402344 135.789062 L 65.78125 135.789062 L 65.976562 139.386719 L 71.160156 141.085938 L 71.160156 138.339844 L 68.46875 137.425781 Z M 68.402344 135.789062"/><g clip-path="url(#n)"><path fill="#CF649A" d="M 110.839844 135.414062 C 109.761719 135.417969 108.824219 135.675781 108.039062 136.0625 C 107.75 135.492188 107.460938 134.992188 107.410156 134.621094 C 107.355469 134.1875 107.292969 133.925781 107.355469 133.40625 C 107.421875 132.890625 107.726562 132.160156 107.726562 132.097656 C 107.71875 132.042969 107.660156 131.78125 107.039062 131.773438 C 106.417969 131.769531 105.878906 131.894531 105.816406 132.058594 C 105.710938 132.355469 105.625 132.664062 105.558594 132.976562 C 105.449219 133.539062 104.316406 135.539062 103.667969 136.589844 C 103.457031 136.183594 103.277344 135.820312 103.238281 135.535156 C 103.183594 135.101562 103.117188 134.835938 103.183594 134.320312 C 103.25 133.804688 103.554688 133.074219 103.554688 133.011719 C 103.546875 132.957031 103.488281 132.695312 102.863281 132.6875 C 102.242188 132.683594 101.707031 132.808594 101.644531 132.96875 C 101.585938 133.132812 101.519531 133.515625 101.386719 133.890625 C 101.257812 134.261719 99.75 137.601562 99.355469 138.472656 C 99.15625 138.914062 98.984375 139.269531 98.855469 139.507812 C 98.730469 139.75 98.851562 139.527344 98.839844 139.550781 L 98.667969 139.871094 L 98.667969 139.875 C 98.585938 140.027344 98.492188 140.171875 98.453125 140.171875 C 98.421875 140.171875 98.359375 139.769531 98.464844 139.214844 C 98.6875 138.058594 99.230469 136.25 99.222656 136.183594 C 99.222656 136.152344 99.328125 135.835938 98.875 135.671875 C 98.433594 135.511719 98.277344 135.78125 98.242188 135.78125 C 98.203125 135.78125 98.171875 135.878906 98.171875 135.878906 C 98.171875 135.878906 98.664062 133.839844 97.238281 133.839844 C 96.34375 133.839844 95.113281 134.808594 94.503906 135.691406 L 91.421875 137.367188 L 91.355469 137.292969 C 89.628906 135.460938 86.4375 134.164062 86.570312 131.703125 C 86.617188 130.808594 86.933594 128.449219 92.703125 125.589844 C 97.429688 123.25 101.21875 123.890625 101.875 125.320312 C 102.8125 127.359375 99.851562 131.15625 94.9375 131.703125 C 93.066406 131.914062 92.082031 131.191406 91.835938 130.921875 C 91.574219 130.640625 91.539062 130.628906 91.441406 130.683594 C 91.285156 130.765625 91.382812 131.019531 91.441406 131.167969 C 91.585938 131.546875 92.191406 132.21875 93.214844 132.554688 C 94.117188 132.851562 96.3125 133.011719 98.96875 131.992188 C 101.945312 130.84375 104.273438 127.664062 103.589844 125.003906 C 102.894531 122.292969 98.378906 121.40625 94.109375 122.914062 C 91.570312 123.8125 88.820312 125.21875 86.839844 127.0625 C 84.480469 129.246094 84.105469 131.15625 84.261719 131.949219 C 84.8125 134.777344 88.730469 136.621094 90.300781 137.984375 L 90.082031 138.105469 C 89.296875 138.488281 86.308594 140.042969 85.5625 141.6875 C 84.714844 143.550781 85.695312 144.890625 86.34375 145.070312 C 88.363281 145.628906 90.425781 144.625 91.542969 142.972656 C 92.65625 141.320312 92.523438 139.179688 92.007812 138.199219 L 91.992188 138.164062 L 92.605469 137.804688 C 93.003906 137.570312 93.398438 137.351562 93.742188 137.167969 C 93.546875 137.691406 93.410156 138.308594 93.335938 139.207031 C 93.253906 140.265625 93.6875 141.632812 94.261719 142.175781 C 94.515625 142.410156 94.816406 142.414062 95.003906 142.414062 C 95.667969 142.414062 95.96875 141.867188 96.300781 141.214844 C 96.710938 140.414062 97.074219 139.492188 97.074219 139.492188 C 97.074219 139.492188 96.621094 141.996094 97.859375 141.996094 C 98.3125 141.996094 98.765625 141.414062 98.96875 141.113281 L 98.96875 141.117188 C 98.96875 141.117188 98.980469 141.097656 99.007812 141.058594 C 99.054688 140.984375 99.078125 140.945312 99.078125 140.945312 L 99.078125 140.929688 C 99.261719 140.621094 99.664062 139.90625 100.269531 138.722656 C 101.046875 137.195312 101.796875 135.289062 101.796875 135.289062 C 101.796875 135.289062 101.867188 135.757812 102.09375 136.523438 C 102.226562 136.980469 102.515625 137.480469 102.738281 137.964844 L 102.449219 138.363281 L 102.453125 138.367188 C 102.300781 138.570312 102.140625 138.773438 101.976562 138.96875 C 101.359375 139.699219 100.625 140.535156 100.527344 140.777344 C 100.414062 141.058594 100.4375 141.269531 100.660156 141.4375 C 100.824219 141.554688 101.113281 141.582031 101.421875 141.554688 C 101.976562 141.519531 102.363281 141.382812 102.554688 141.296875 C 102.90625 141.171875 103.234375 141.003906 103.535156 140.789062 C 104.136719 140.34375 104.507812 139.710938 104.46875 138.871094 C 104.453125 138.410156 104.300781 137.953125 104.113281 137.519531 L 104.277344 137.28125 C 105.230469 135.894531 105.96875 134.367188 105.96875 134.367188 C 105.96875 134.367188 106.039062 134.835938 106.265625 135.605469 C 106.378906 135.996094 106.609375 136.421875 106.8125 136.84375 C 105.921875 137.570312 105.359375 138.410156 105.164062 138.960938 C 104.808594 139.980469 105.085938 140.445312 105.613281 140.554688 C 105.847656 140.601562 106.1875 140.492188 106.4375 140.386719 C 106.753906 140.28125 107.132812 140.109375 107.484375 139.851562 C 108.085938 139.40625 108.667969 138.789062 108.636719 137.953125 C 108.617188 137.570312 108.515625 137.191406 108.378906 136.828125 C 109.136719 136.519531 110.121094 136.335938 111.371094 136.488281 C 114.058594 136.800781 114.589844 138.46875 114.488281 139.164062 C 114.382812 139.863281 113.824219 140.246094 113.636719 140.367188 C 113.449219 140.480469 113.386719 140.523438 113.40625 140.605469 C 113.429688 140.734375 113.515625 140.726562 113.679688 140.703125 C 113.902344 140.667969 115.089844 140.132812 115.140625 138.847656 C 115.210938 137.195312 113.636719 135.394531 110.839844 135.414062 Z M 90.121094 142.359375 C 89.230469 143.328125 87.980469 143.695312 87.449219 143.382812 C 86.878906 143.050781 87.101562 141.628906 88.195312 140.601562 C 88.859375 139.976562 89.722656 139.402344 90.289062 139.046875 L 90.839844 138.714844 C 90.875 138.691406 90.898438 138.679688 90.898438 138.679688 C 90.941406 138.65625 90.988281 138.625 91.039062 138.59375 C 91.441406 140.0625 91.054688 141.34375 90.121094 142.359375 Z M 96.609375 137.972656 C 96.300781 138.722656 95.652344 140.648438 95.257812 140.542969 C 94.921875 140.449219 94.714844 138.992188 95.191406 137.550781 C 95.433594 136.824219 95.945312 135.960938 96.25 135.625 C 96.738281 135.082031 97.269531 134.902344 97.402344 135.125 C 97.558594 135.414062 96.804688 137.503906 96.609375 137.972656 Z M 101.964844 140.515625 C 101.832031 140.582031 101.710938 140.632812 101.65625 140.59375 C 101.617188 140.570312 101.710938 140.480469 101.710938 140.480469 C 101.710938 140.480469 102.382812 139.765625 102.648438 139.4375 L 103.175781 138.769531 L 103.175781 138.84375 C 103.175781 139.707031 102.339844 140.28125 101.964844 140.515625 Z M 106.09375 139.582031 C 106 139.507812 106.011719 139.285156 106.335938 138.589844 C 106.464844 138.3125 106.753906 137.851562 107.253906 137.414062 C 107.316406 137.59375 107.351562 137.765625 107.34375 137.929688 C 107.339844 139.011719 106.566406 139.414062 106.09375 139.582031 Z M 106.09375 139.582031"/></g><g clip-path="url(#o)"><path fill="#0277BD" d="M 131.117188 121.40625 C 130.125 121.410156 129.441406 121.496094 128.609375 121.640625 C 126.160156 122.066406 125.714844 122.964844 125.714844 124.617188 L 125.714844 127.140625 L 131.445312 127.140625 L 131.445312 128.414062 L 122.730469 128.414062 C 121.050781 128.414062 119.582031 129.207031 119.117188 131.101562 C 118.59375 133.277344 118.566406 134.640625 119.117188 136.914062 C 119.535156 138.609375 120.453125 139.882812 122.132812 139.882812 L 124.441406 139.882812 L 124.441406 136.628906 C 124.441406 134.742188 126.152344 132.875 128.113281 132.875 L 132.71875 132.875 C 134.324219 132.875 135.898438 131.6875 135.898438 130.085938 L 135.898438 124.617188 C 135.898438 123.0625 134.78125 121.898438 133.214844 121.640625 C 133.253906 121.636719 132.097656 121.402344 131.117188 121.40625 Z M 127.945312 123.953125 C 128.464844 123.953125 128.898438 124.386719 128.898438 124.910156 C 128.898438 125.441406 128.464844 125.867188 127.945312 125.867188 C 127.410156 125.867188 126.988281 125.441406 126.988281 124.910156 C 126.988281 124.386719 127.410156 123.953125 127.945312 123.953125 Z M 127.945312 123.953125"/></g><g clip-path="url(#p)"><path fill="#FFC107" d="M 130.5 145.613281 C 131.488281 145.613281 132.175781 145.523438 133.003906 145.382812 C 135.453125 144.953125 135.898438 144.058594 135.898438 142.40625 L 135.898438 139.882812 L 130.171875 139.882812 L 130.171875 138.605469 L 138.886719 138.605469 C 140.566406 138.605469 142.03125 137.816406 142.5 135.917969 C 143.023438 133.742188 143.046875 132.378906 142.5 130.105469 C 142.082031 128.410156 141.164062 127.140625 139.484375 127.140625 L 137.171875 127.140625 L 137.171875 130.390625 C 137.171875 132.28125 135.460938 134.148438 133.503906 134.148438 L 128.898438 134.148438 C 127.292969 134.148438 125.714844 135.335938 125.714844 136.9375 L 125.714844 142.40625 C 125.714844 143.960938 126.835938 145.121094 128.398438 145.382812 C 128.363281 145.386719 129.519531 145.617188 130.5 145.613281 Z M 133.671875 143.066406 C 133.148438 143.066406 132.71875 142.636719 132.71875 142.109375 C 132.71875 141.578125 133.148438 141.15625 133.671875 141.15625 C 134.203125 141.15625 134.625 141.578125 134.625 142.109375 C 134.625 142.632812 134.203125 143.066406 133.671875 143.066406 Z M 133.671875 143.066406"/></g></svg>